<svg xmlns="http://www.w3.org/2000/svg" viewBox="0 0 360 400"><defs><filter id="shadow" x="-30%" y="-30%" width="160%" height="170%"><feDropShadow dx="0" dy="14" stdDeviation="10" flood-color="#263526" flood-opacity=".16"/></filter><pattern id="grain" width="6" height="6" patternUnits="userSpaceOnUse"><circle cx="1" cy="1" r=".55" fill="#fff" opacity=".22"/></pattern></defs><rect width="360" height="400" fill="#f0ebe0"/><ellipse cx="180" cy="350" rx="118" ry="12" fill="#303b2c" opacity=".07"/><g filter="url(#shadow)"><path d="m133 81-49 29-46 71 47 29 30-38v157h130V172l30 38 47-29-46-71-49-29Z" fill="#f7f3e8" stroke="#c6bda8" stroke-width="3"/><path d="M146 79c0 43 68 43 68 0" fill="#dfd5c0" stroke="#c6bda8" stroke-width="3"/><path d="M154 82c1 29 51 29 52 0" fill="none" stroke="#faf8ef" stroke-width="8"/><path d="M126 318h109M49 175l34 22m194 0 34-22" stroke="#d7cebb" stroke-width="3"/><text x="180" y="186" text-anchor="middle" font-family="Georgia,serif" font-size="25" fill="#536249">slow days.</text><path d="M159 208h42" stroke="#b8a989" stroke-width="2"/></g><rect width="360" height="400" fill="url(#grain)"/></svg>
